<svg xmlns="http://www.w3.org/2000/svg" viewBox="0 0 131.61 211.95"><defs><style>.cls-1{fill:#fff;stroke:#000;stroke-linecap:round;stroke-linejoin:round;stroke-width:4px;}.cls-2{fill:#094cf6;}</style></defs><title>Fichier 3</title><g id="Calque_2" data-name="Calque 2"><g id="svg2"><g id="g1916"><path id="rect2081" class="cls-1" d="M17.27,2h97.08a15.23,15.23,0,0,1,15.26,15.27V194.69A15.23,15.23,0,0,1,114.35,210H17.27A15.23,15.23,0,0,1,2,194.69V17.27A15.24,15.24,0,0,1,17.27,2Z"/><g id="g6261"><path id="path2161" class="cls-2" d="M64.18,144.16c2.52-5.12,3.29-11.33.54-16.51-2.07-4.18-4.85-7.8-7.42-11.68-4.07-5.26-7.26-11.83-5.81-18.52.77-4.85,3.72-9,6-13.26a44.41,44.41,0,0,0,5.55-12c1.13-5.88-.64-14.51-4.69-19.13H70.46c2.87,4.49,6.15,9.34,5.6,14.86.46,7.21-4.21,13.33-7.36,19.5-3.75,5.88-6.52,13.35-3.43,20,2.88,6.35,7.64,11.69,11,17.78,2.86,4.53,3.1,10.16,2,15.21-2.12,5.6-5.19,12.69-7.71,18.13l-13.11,0C59.11,153.51,61.9,148.91,64.18,144.16Z"/><path id="path2248" class="cls-2" d="M43.93,144.16c2.51-5.12,3.29-11.33.53-16.51-2.07-4.18-4.85-7.8-7.42-11.68-4.07-5.26-7.26-11.83-5.81-18.52.77-4.85,3.72-9,6-13.26a44.39,44.39,0,0,0,5.54-12c1.14-5.88-.64-14.51-4.69-19.13h12.1c2.86,4.49,6.14,9.34,5.59,14.86.47,7.21-4.2,13.33-7.35,19.5-3.75,5.88-6.53,13.35-3.44,20,2.88,6.35,7.65,11.69,11.05,17.78,2.87,4.53,3.1,10.16,2,15.21-2.13,5.6-5.19,12.69-7.71,18.13l-13.12,0C38.85,153.51,41.64,148.91,43.93,144.16Z"/><path id="path2250" class="cls-2" d="M84.44,144.16C87,139,87.73,132.83,85,127.65c-2.06-4.18-4.85-7.8-7.41-11.68-4.07-5.26-7.26-11.83-5.81-18.52.76-4.85,3.72-9,6-13.26a44.41,44.41,0,0,0,5.55-12c1.13-5.88-.65-14.51-4.69-19.13H90.72c2.86,4.49,6.14,9.34,5.59,14.86.47,7.21-4.2,13.33-7.35,19.5-3.75,5.88-6.53,13.35-3.43,20,2.88,6.35,7.64,11.69,11,17.78,2.86,4.53,3.09,10.16,2,15.21-2.12,5.6-5.19,12.69-7.71,18.13l-13.12,0C79.37,153.51,82.15,148.91,84.44,144.16Z"/></g></g></g></g></svg>